<svg width="189" height="189" viewBox="0 0 189 189" fill="none" xmlns="http://www.w3.org/2000/svg">
<circle cx="94.5" cy="94.5" r="94.5" fill="#B39A81"/>
<path fill-rule="evenodd" clip-rule="evenodd" d="M96 25.8854C99.5504 25.8854 102.429 28.7636 102.429 32.314V41.2306C115.978 42.6903 128.7 48.7325 138.426 58.459C149.679 69.7112 156 84.9725 156 100.885C156 104.295 154.646 107.566 152.235 109.977C149.823 112.388 146.553 113.743 143.143 113.743H48.8571C45.4472 113.743 42.1769 112.388 39.7658 109.977C37.3546 107.566 36 104.295 36 100.885C36 84.9725 42.3214 69.7112 53.5736 58.459C63.3001 48.7326 76.0222 42.6903 89.5714 41.2306V32.314C89.5714 28.7636 92.4496 25.8854 96 25.8854ZM42.6912 125.714C39.1408 125.714 36.2626 128.593 36.2626 132.143C36.2626 135.693 39.1408 138.571 42.6912 138.571H149.308C152.859 138.571 155.737 135.693 155.737 132.143C155.737 128.593 152.859 125.714 149.308 125.714H42.6912Z" fill="white"/>
<g clip-path="url(#clip0_6_42)">
<path fill-rule="evenodd" clip-rule="evenodd" d="M72.0266 55.0928C73.6243 55.0928 74.9195 56.3879 74.9195 57.9856V67.6285C74.9195 69.4187 75.6306 71.1356 76.8965 72.4014C77.448 72.953 78.0851 73.3992 78.7766 73.7272V57.9856C78.7766 56.3879 80.0717 55.0928 81.6695 55.0928C83.2671 55.0928 84.5623 56.3879 84.5623 57.9856V73.7272C85.2595 73.3965 85.8956 72.9483 86.4424 72.4014C87.0692 71.7746 87.5664 71.0305 87.9056 70.2116C88.2448 69.3926 88.4195 68.5149 88.4195 67.6285V57.9856C88.4195 56.3879 89.7146 55.0928 91.3123 55.0928C92.91 55.0928 94.2052 56.3879 94.2052 57.9856V67.6285C94.2052 69.2747 93.8809 70.9048 93.2509 72.4257C92.621 73.9466 91.6976 75.3285 90.5336 76.4925C89.3695 77.6566 87.9876 78.58 86.4667 79.21C86.1582 79.3378 85.8452 79.4529 85.5285 79.5554V105.143C85.5285 107.273 83.8016 109 81.6713 109C79.5411 109 77.8142 107.273 77.8142 105.143V79.5567C75.9428 78.9517 74.222 77.9092 72.8054 76.4925C70.4545 74.1417 69.1337 70.9531 69.1337 67.6285V57.9856C69.1337 56.3879 70.4289 55.0928 72.0266 55.0928ZM110.792 55.0928C103.958 55.0928 99.4476 61.7534 99.4476 68.5498C99.4476 73.9662 102.312 79.2964 106.935 81.2377V105.143C106.935 107.274 108.661 109 110.792 109C112.922 109 114.649 107.274 114.649 105.143V81.2378C119.272 79.2966 122.136 73.9663 122.136 68.5498C122.136 61.7534 117.626 55.0928 110.792 55.0928Z" fill="#B39A81"/>
</g>
<path d="M8.10967 89.067C8.55061 89.108 8.97617 89.1387 9.38636 89.1593C9.79654 89.1695 10.1093 89.1746 10.3246 89.1746C10.5605 89.1746 10.781 89.1695 10.9861 89.1593C11.1912 89.149 11.3706 89.1387 11.5244 89.1285V89.4823C10.7553 89.5951 10.1503 89.7489 9.70938 89.9437C9.25818 90.1386 8.94028 90.4001 8.7557 90.7282C8.56087 91.0563 8.46345 91.4922 8.46345 92.0357V92.6971C8.46345 93.0047 8.48908 93.2406 8.54036 93.4046C8.59163 93.5687 8.6993 93.6815 8.86337 93.743C9.02745 93.7943 9.27868 93.8199 9.61708 93.8199H17.308C17.6977 93.8199 17.9899 93.7789 18.1848 93.6969C18.3796 93.6149 18.5078 93.4559 18.5693 93.2201C18.6308 92.9842 18.6667 92.6458 18.677 92.2049H19C18.9795 92.5022 18.9692 92.8868 18.9692 93.3585C18.959 93.8302 18.9539 94.3173 18.9539 94.8198C18.9539 95.2505 18.959 95.6658 18.9692 96.0657C18.9692 96.4656 18.9795 96.8143 19 97.1117H18.6924C18.6719 96.7733 18.6308 96.522 18.5693 96.3579C18.5078 96.1836 18.3847 96.0708 18.2001 96.0195C18.0156 95.958 17.7387 95.9273 17.3695 95.9273H9.74014C9.36072 95.9273 9.08385 95.958 8.90952 96.0195C8.72494 96.0708 8.60188 96.1836 8.54036 96.3579C8.46857 96.522 8.42756 96.7733 8.4173 97.1117H8.10967C8.11992 96.7015 8.13017 96.2708 8.14043 95.8196C8.14043 95.3581 8.14556 94.9069 8.15581 94.466C8.15581 94.0148 8.15581 93.5995 8.15581 93.2201C8.15581 92.8304 8.15581 92.5176 8.15581 92.2818C8.15581 91.8101 8.15581 91.2768 8.15581 90.6821C8.14556 90.077 8.13017 89.5387 8.10967 89.067ZM13.4625 91.3896C13.4625 91.3896 13.5138 91.3896 13.6164 91.3896C13.7189 91.3896 13.7702 91.3896 13.7702 91.3896V94.2814C13.7702 94.2814 13.7189 94.2814 13.6164 94.2814C13.5138 94.2814 13.4625 94.2814 13.4625 94.2814V91.3896ZM11.4321 91.0358C12.0166 91.0769 12.4627 91.0974 12.7704 91.0974C13.078 91.0871 13.36 91.082 13.6164 91.082C13.8727 91.082 14.1547 91.0769 14.4624 91.0666C14.77 91.0563 15.2161 91.0307 15.8006 90.9897V91.3435C15.4519 91.3845 15.1238 91.4614 14.8161 91.5742C14.4983 91.687 14.247 91.8613 14.0624 92.0972C13.8676 92.3228 13.7702 92.6509 13.7702 93.0816H13.4625C13.4625 92.7637 13.3959 92.5022 13.2626 92.2971C13.1293 92.0921 12.9601 91.9331 12.755 91.8203C12.5396 91.6973 12.3192 91.605 12.0936 91.5434C11.8577 91.4717 11.6372 91.4204 11.4321 91.3896V91.0358Z" fill="white"/>
<path d="M10.8153 73.6112L11.1162 73.6752C11.058 73.9983 11.0459 74.2526 11.0799 74.438C11.106 74.6113 11.2029 74.7472 11.3706 74.8458C11.5284 74.9422 11.7928 75.0299 12.1639 75.1088L19.6266 76.695C19.9877 76.7717 20.2649 76.7992 20.4582 76.7774C20.6516 76.7556 20.7954 76.6709 20.8897 76.5232C20.9861 76.3654 21.0785 76.1282 21.1668 75.8115L21.4677 75.8755C21.3943 76.122 21.3161 76.4408 21.2329 76.832C21.1397 77.2211 21.0505 77.6162 20.9652 78.0174C20.8693 78.4688 20.7847 78.8911 20.7116 79.2844C20.6285 79.6756 20.5703 79.9987 20.537 80.2538L20.2361 80.1898C20.2864 79.8545 20.2985 79.6003 20.2725 79.427C20.2485 79.2437 20.1516 79.1077 19.9817 79.0192C19.814 78.9207 19.5495 78.833 19.1884 78.7563L11.7258 77.17C11.3546 77.0911 11.0774 77.0637 10.8941 77.0876C10.7029 77.0994 10.5591 77.1841 10.4627 77.3418C10.3583 77.4874 10.266 77.7246 10.1856 78.0535L9.88468 77.9895C9.94801 77.7409 10.0263 77.4221 10.1194 77.033C10.2126 76.644 10.3072 76.2237 10.4031 75.7724C10.4884 75.3711 10.5676 74.9739 10.6407 74.5806C10.7139 74.1872 10.772 73.8641 10.8153 73.6112Z" fill="white"/>
<path d="M16.8483 57.4124L17.1293 57.5376C16.9969 57.8603 16.9259 58.1205 16.9164 58.3183C16.9017 58.5026 16.9662 58.6604 17.1098 58.7917C17.244 58.9188 17.4844 59.0595 17.831 59.2138L24.9132 62.367C25.213 62.5005 25.453 62.5793 25.6331 62.6033C25.808 62.6139 25.9502 62.5593 26.0596 62.4396C26.169 62.32 26.2821 62.129 26.3988 61.8667L26.7554 61.0657C26.9181 60.7004 26.9943 60.3526 26.9842 60.0226C26.9781 59.6831 26.8945 59.3541 26.7334 59.0354C26.5722 58.7167 26.3381 58.4104 26.0311 58.1166C25.7148 57.8186 25.335 57.5372 24.8916 57.2725L25.0355 56.9493C25.3321 57.115 25.7287 57.3084 26.2252 57.5295C26.4313 57.6212 26.7285 57.7479 27.1167 57.9096C27.5092 58.0618 27.9198 58.211 28.3487 58.357C28.1172 58.8265 27.868 59.361 27.6011 59.9605C27.3248 60.5559 27.0824 61.0878 26.8738 61.5562C26.7737 61.781 26.6465 62.0667 26.4922 62.4134C26.3379 62.76 26.1736 63.1415 25.9995 63.5578C25.8201 63.9606 25.6413 64.3749 25.463 64.8007C25.2794 65.2128 25.109 65.6084 24.9515 65.9873L24.6704 65.8622C24.7893 65.5447 24.8541 65.2985 24.8646 65.1236C24.8793 64.9393 24.8128 64.7862 24.665 64.6643C24.5214 64.533 24.281 64.3923 23.9437 64.2421L16.9739 61.139C16.6273 60.9846 16.3619 60.9001 16.1776 60.8854C15.9881 60.8572 15.8298 60.9102 15.7027 61.0444C15.5704 61.1651 15.4307 61.3779 15.2837 61.6829L15.0027 61.5578C15.1163 61.3278 15.2591 61.0321 15.4312 60.671C15.6032 60.3098 15.7831 59.9184 15.9708 59.4969C16.1418 59.1128 16.306 58.7313 16.4635 58.3524C16.6209 57.9735 16.7492 57.6602 16.8483 57.4124Z" fill="white"/>
<path d="M26.9423 41.3931L27.1912 41.5739C27.0066 41.8454 26.8921 42.0728 26.8477 42.256C26.8011 42.4249 26.8343 42.5885 26.9475 42.7468C27.0523 42.899 27.2582 43.0866 27.5652 43.3097L33.7375 47.7941C34.0362 48.0111 34.2782 48.1489 34.4637 48.2077C34.6492 48.2664 34.8151 48.2474 34.9613 48.1509C35.1136 48.046 35.2944 47.8669 35.5039 47.6134L35.7528 47.7943C35.5855 47.9896 35.3843 48.2491 35.1492 48.5726C34.9059 48.8901 34.6636 49.2148 34.4225 49.5467C34.1513 49.92 33.9023 50.2714 33.6755 50.601C33.4404 50.9246 33.2559 51.1961 33.1218 51.4155L32.8729 51.2347C33.0552 50.9489 33.1697 50.7215 33.2164 50.5526C33.269 50.3754 33.2358 50.2118 33.1166 50.0618C33.0034 49.9036 32.7975 49.7159 32.4989 49.4989L26.3266 45.0145C26.0196 44.7915 25.7775 44.6536 25.6003 44.6009C25.4209 44.5339 25.255 44.5529 25.1028 44.6577C24.9482 44.7483 24.7674 44.9274 24.5602 45.1952L24.3113 45.0143C24.4703 44.813 24.6715 44.5535 24.9148 44.236C25.1582 43.9185 25.4155 43.573 25.6867 43.1997C25.9278 42.8679 26.1618 42.5372 26.3885 42.2076C26.6153 41.878 26.7999 41.6065 26.9423 41.3931Z" fill="white"/>
<path d="M35.5047 32.2339C35.702 32.07 35.9528 31.858 36.2568 31.598C36.5609 31.3381 36.8615 31.0743 37.1587 30.8067C37.5321 30.4704 37.8831 30.1476 38.2115 29.838C38.54 29.5285 38.7728 29.312 38.9099 29.1885C39.9311 28.269 40.878 27.7958 41.7508 27.769C42.6311 27.7352 43.3698 28.0499 43.9667 28.7129C44.2138 28.9872 44.425 29.3214 44.6004 29.7154C44.7689 30.1018 44.8479 30.5344 44.8373 31.013C44.8199 31.4841 44.6699 31.9918 44.3872 32.536C44.1122 33.0735 43.6469 33.6372 42.9916 34.2273L41.8485 35.2566L41.6426 35.0279L42.6714 34.1016C43.1515 33.6693 43.4247 33.2371 43.4909 32.8049C43.5647 32.3659 43.4926 31.9409 43.2745 31.5302C43.064 31.1125 42.7838 30.7094 42.4339 30.3207C41.782 29.5968 41.1768 29.162 40.618 29.0166C40.0593 28.8711 39.4903 29.0591 38.9112 29.5806C38.5987 29.862 38.4513 30.112 38.4689 30.3307C38.4941 30.5426 38.6851 30.8467 39.0419 31.243L44.1058 36.867C44.3665 37.1566 44.5925 37.3463 44.7839 37.4362C44.9752 37.5261 45.1791 37.515 45.3955 37.4029C45.612 37.2908 45.8875 37.0911 46.222 36.8036L46.4382 37.0437C46.2035 37.2274 45.9108 37.4771 45.5603 37.7928C45.2029 38.1008 44.8374 38.4229 44.464 38.7591C44.144 39.0473 43.8388 39.329 43.5484 39.6042C43.2512 39.8718 42.999 40.1128 42.7917 40.327L42.5859 40.0984C42.8236 39.8567 42.9829 39.6581 43.0636 39.5026C43.152 39.3402 43.1535 39.1733 43.0681 39.0018C42.9903 38.8235 42.8279 38.5971 42.5809 38.3228L37.4758 32.6531C37.222 32.3711 37.0138 32.1859 36.8515 32.0975C36.6898 31.9947 36.5237 31.9787 36.353 32.0496C36.183 32.1061 35.9688 32.2437 35.7105 32.4625L35.5047 32.2339Z" fill="white"/>
<path d="M54.7793 18.5198L54.9331 18.7862C54.6541 18.9591 54.457 19.1203 54.3419 19.2696C54.2306 19.4049 54.1944 19.5679 54.2334 19.7585C54.2673 19.9402 54.3791 20.1954 54.5688 20.524L58.3835 27.1312C58.5681 27.4509 58.7332 27.6753 58.8788 27.8044C59.0243 27.9335 59.1836 27.9837 59.3564 27.9549C59.5381 27.921 59.7762 27.831 60.0707 27.6846L60.2245 27.9511C59.9922 28.0615 59.7029 28.2167 59.3566 28.4166C59.0051 28.6077 58.6517 28.8058 58.2965 29.0109C57.8969 29.2416 57.5264 29.4614 57.1852 29.6703C56.8389 29.8702 56.5598 30.0432 56.3481 30.1891L56.1942 29.9227C56.477 29.7357 56.6741 29.5746 56.7854 29.4393C56.9057 29.2988 56.9418 29.1359 56.8939 28.9504C56.8549 28.7598 56.7431 28.5046 56.5585 28.1849L52.7438 21.5776C52.5541 21.2491 52.3891 21.0247 52.2486 20.9045C52.1119 20.7702 51.9527 20.7201 51.771 20.7539C51.593 20.7738 51.3549 20.8639 51.0567 21.0242L50.9029 20.7578C51.13 20.6385 51.4193 20.4833 51.7708 20.2922C52.1223 20.1012 52.4978 19.8902 52.8975 19.6595C53.2527 19.4544 53.6009 19.2475 53.9422 19.0386C54.2834 18.8298 54.5624 18.6568 54.7793 18.5198Z" fill="white"/>
<path d="M75.3973 10.6879L75.4924 10.9804C75.1898 11.1111 74.9746 11.2619 74.8469 11.4328C74.7159 11.5939 74.6608 11.8059 74.6815 12.0687C74.7088 12.3187 74.7937 12.663 74.9363 13.1019L77.6504 21.4551C77.5595 21.4738 77.4604 21.5006 77.3531 21.5355C77.2556 21.5672 77.1499 21.6069 77.036 21.6547L67.989 15.1651L70.0424 21.4849C70.1945 21.953 70.3426 22.3092 70.4867 22.5535C70.6276 22.7881 70.8146 22.9322 71.0477 22.9858C71.2874 23.0266 71.6183 22.9999 72.0406 22.9058L72.1357 23.1984C71.944 23.2391 71.7019 23.307 71.4094 23.4021C71.1136 23.4874 70.8341 23.5728 70.5707 23.6584C70.3367 23.7344 70.0993 23.8169 69.8587 23.9059C69.6246 23.9819 69.4327 24.0551 69.283 24.1253L69.188 23.8327C69.4971 23.6891 69.7123 23.5383 69.8335 23.3804C69.9644 23.2192 70.0147 23.0088 69.9842 22.7491C69.9635 22.4863 69.8834 22.1403 69.744 21.7112L67.548 14.9526C67.4308 14.5918 67.3159 14.338 67.2036 14.1912C67.0978 14.0315 66.9524 13.9493 66.7676 13.9447C66.5894 13.9271 66.3378 13.9657 66.0128 14.0605L65.9177 13.768C66.0769 13.727 66.2752 13.6734 66.5124 13.6071C66.7594 13.5376 66.9999 13.4649 67.234 13.3888C67.4583 13.3159 67.6761 13.2398 67.8875 13.1603C68.0989 13.0808 68.2859 13.0093 68.4485 12.9456L76.3063 18.463L74.6379 13.3283C74.4826 12.8504 74.3345 12.4942 74.1936 12.2596C74.0527 12.0251 73.8657 11.881 73.6326 11.8273C73.3996 11.7736 73.0686 11.8003 72.6397 11.9073L72.5447 11.6147C72.7331 11.5643 72.9752 11.4964 73.271 11.4111C73.5765 11.3226 73.856 11.2372 74.1096 11.1548C74.3534 11.0756 74.5908 10.993 74.8217 10.9072C75.0623 10.8183 75.2542 10.7451 75.3973 10.6879Z" fill="white"/>
<path d="M88.873 8.79701C89.9133 8.68768 90.8491 8.81101 91.6804 9.167C92.5118 9.523 93.1851 10.0915 93.7002 10.8726C94.2245 11.6423 94.5483 12.6136 94.6715 13.7865C94.7916 14.9287 94.6723 15.9517 94.3136 16.8555C93.9651 17.7583 93.4183 18.4911 92.6732 19.0541C91.9383 19.6159 91.0609 19.9504 90.0411 20.0576C89.0009 20.167 88.0651 20.0436 87.2337 19.6876C86.4023 19.3316 85.724 18.7637 85.1986 17.9837C84.6835 17.2026 84.3648 16.2308 84.2426 15.0682C84.1225 13.926 84.2419 12.9029 84.6005 11.9991C84.9592 11.0953 85.506 10.3624 86.2409 9.80058C86.9758 9.23872 87.8532 8.9042 88.873 8.79701ZM88.8408 9.0788C88.2391 9.14204 87.738 9.42671 87.3375 9.9328C86.9472 10.4378 86.672 11.106 86.5119 11.9374C86.3518 12.7688 86.3275 13.7148 86.439 14.7755C86.5526 15.8565 86.7895 16.7854 87.1495 17.5621C87.5085 18.3286 87.9455 18.9065 88.4608 19.2957C88.9749 19.6748 89.5124 19.8348 90.0733 19.7758C90.675 19.7126 91.171 19.4285 91.5613 18.9234C91.9618 18.4174 92.2421 17.7486 92.4022 16.9172C92.5612 16.0756 92.5855 15.1296 92.4751 14.0792C92.3604 12.9879 92.1236 12.0591 91.7646 11.2925C91.4057 10.526 90.9691 9.95323 90.455 9.5742C89.9499 9.18391 89.4119 9.01877 88.8408 9.0788Z" fill="white"/>
<path d="M104.866 13.7919C105.325 13.8401 105.726 13.9957 106.07 14.2587C106.415 14.5114 106.675 14.8327 106.85 15.2223C107.036 15.613 107.105 16.0379 107.057 16.4968C107.009 16.9455 106.854 17.3417 106.591 17.6852C106.339 18.0298 106.017 18.295 105.626 18.4808C105.237 18.6564 104.812 18.7201 104.353 18.6718C103.905 18.6247 103.503 18.4742 103.148 18.2204C102.804 17.9574 102.545 17.6311 102.369 17.2414C102.194 16.8518 102.13 16.4326 102.177 15.9839C102.225 15.525 102.375 15.1232 102.628 14.7785C102.881 14.4339 103.202 14.1738 103.592 13.9982C103.993 13.8135 104.418 13.7448 104.866 13.7919Z" fill="white"/>
<path d="M123.36 13.5563C123.907 13.7338 124.307 13.9285 124.561 14.1406C124.816 14.3527 125.028 14.5619 125.199 14.7681C125.293 14.8744 125.369 14.9582 125.424 15.0194C125.493 15.074 125.561 15.1124 125.629 15.1346C125.727 15.1663 125.813 15.1348 125.886 15.0402C125.97 14.9488 126.061 14.8005 126.16 14.5955L126.497 14.7048C126.427 14.8869 126.343 15.0967 126.244 15.3342C126.155 15.5748 126.039 15.8984 125.896 16.3048C125.766 16.7047 125.593 17.2362 125.378 17.8994L125.042 17.7901C125.174 17.2832 125.217 16.7689 125.171 16.2471C125.135 15.7285 124.988 15.2659 124.732 14.8592C124.489 14.446 124.099 14.1522 123.563 13.978C123.085 13.8227 122.639 13.8342 122.226 14.0124C121.822 14.1939 121.542 14.5235 121.387 15.0014C121.254 15.411 121.244 15.7905 121.356 16.1399C121.473 16.4795 121.673 16.8412 121.958 17.2249C122.256 17.6021 122.61 18.0404 123.019 18.5399C123.395 19.0073 123.723 19.4588 124.002 19.8945C124.284 20.3204 124.472 20.7535 124.566 21.1938C124.67 21.6373 124.635 22.1273 124.461 22.6636C124.255 23.2976 123.928 23.7735 123.479 24.0915C123.031 24.4094 122.51 24.5853 121.917 24.6189C121.324 24.6526 120.715 24.5681 120.091 24.3653C119.516 24.1783 119.076 23.9709 118.773 23.7429C118.479 23.5182 118.231 23.3028 118.029 23.0968C117.858 22.8905 117.715 22.7684 117.598 22.7303C117.5 22.6987 117.41 22.7285 117.326 22.82C117.252 22.9146 117.166 23.0644 117.067 23.2694L116.73 23.1601C116.823 22.9421 116.918 22.682 117.016 22.3797C117.124 22.0805 117.256 21.692 117.411 21.2141C117.579 20.7296 117.784 20.1168 118.025 19.3756L118.361 19.4849C118.197 20.1218 118.114 20.7418 118.113 21.345C118.124 21.9416 118.261 22.4659 118.523 22.9179C118.796 23.3731 119.244 23.702 119.869 23.9049C120.21 24.0158 120.536 24.0571 120.847 24.0288C121.171 23.9939 121.457 23.8766 121.706 23.6769C121.957 23.4674 122.148 23.1628 122.277 22.7629C122.407 22.3631 122.429 21.9819 122.342 21.6193C122.255 21.2568 122.088 20.89 121.842 20.5189C121.596 20.1478 121.293 19.7529 120.933 19.3341C120.57 18.8925 120.237 18.4557 119.936 18.0234C119.634 17.5911 119.423 17.1452 119.303 16.6857C119.196 16.2195 119.231 15.7133 119.408 15.1672C119.605 14.5625 119.911 14.1176 120.327 13.8323C120.746 13.5372 121.22 13.3731 121.749 13.3399C122.287 13.3099 122.824 13.382 123.36 13.5563Z" fill="white"/>
<path d="M144.354 24.1785C144.083 24.5665 143.825 24.9508 143.582 25.3313C143.353 25.708 143.179 25.9985 143.061 26.2028C142.943 26.407 142.837 26.6005 142.744 26.7833C142.65 26.966 142.569 27.1266 142.501 27.2649L142.195 27.088C142.481 26.3058 142.65 25.6636 142.703 25.1614C142.762 24.6503 142.695 24.2214 142.505 23.8746C142.323 23.5329 141.997 23.2262 141.526 22.9544L141.1 22.7083L136.716 30.3013C136.506 30.6654 136.381 30.9542 136.34 31.1677C136.309 31.3864 136.377 31.5857 136.546 31.7658C136.719 31.937 136.999 32.1399 137.384 32.3744L137.231 32.6408C136.974 32.4692 136.633 32.2604 136.207 32.0142C135.786 31.7593 135.353 31.5036 134.909 31.2472C134.447 30.9806 134.01 30.7338 133.596 30.5068C133.196 30.2761 132.867 30.0978 132.608 29.972L132.762 29.7056C133.149 29.9172 133.46 30.0553 133.695 30.12C133.935 30.1757 134.142 30.1353 134.316 29.9987C134.489 29.8621 134.681 29.6118 134.891 29.2477L139.275 21.6547L138.836 21.4009C138.374 21.1342 137.945 21.0051 137.549 21.0135C137.154 21.022 136.749 21.1792 136.336 21.4851C135.927 21.7822 135.46 22.2527 134.935 22.8965L134.628 22.7196C134.723 22.5966 134.822 22.4463 134.924 22.2687C135.036 22.0962 135.15 21.9078 135.268 21.7036C135.386 21.4993 135.547 21.2011 135.749 20.809C135.966 20.4131 136.175 20.0007 136.375 19.5717C136.76 19.8062 137.186 20.0637 137.652 20.3443C138.117 20.625 138.585 20.9011 139.056 21.1729C139.527 21.4446 139.957 21.6933 140.348 21.9189C140.73 22.1394 141.156 22.3855 141.627 22.6572C142.098 22.929 142.571 23.1963 143.047 23.4592C143.522 23.722 143.958 23.9618 144.354 24.1785Z" fill="white"/>
<path d="M157.701 35.7219L157.495 35.9505C157.302 35.859 157.035 35.833 156.696 35.8726C156.364 35.9045 155.924 36.0256 155.376 36.2359L149.227 38.6275L148.805 38.2466L150.576 30.9C150.671 30.5029 150.7 30.2183 150.662 30.046C150.631 29.8661 150.573 29.7384 150.489 29.6629L150.706 29.4229C150.882 29.5952 151.062 29.7782 151.246 29.9718C151.445 30.1647 151.663 30.3675 151.899 30.5802C152.204 30.8547 152.535 31.1459 152.892 31.4539C153.25 31.7619 153.588 32.0456 153.906 32.3048L153.69 32.5448C153.5 32.3733 153.314 32.2341 153.135 32.1274C152.955 32.0206 152.793 31.9928 152.651 32.0438C152.508 32.0949 152.397 32.2568 152.317 32.5297L150.978 37.7406L150.416 37.8137L154.045 36.4036C154.749 36.1271 155.232 35.8513 155.494 35.5762C155.763 35.3079 155.861 35.0378 155.789 34.7656C155.731 34.4927 155.549 34.2118 155.244 33.9229L155.449 33.6943C155.694 33.9283 155.923 34.1486 156.138 34.3553C156.359 34.5687 156.581 34.775 156.802 34.9739C156.985 35.1386 157.148 35.2789 157.292 35.3948C157.444 35.5175 157.58 35.6266 157.701 35.7219ZM151.376 37.6435L148.968 40.3184C148.721 40.5927 148.558 40.8191 148.48 40.9974C148.403 41.1757 148.404 41.3427 148.485 41.4982C148.573 41.6605 148.732 41.8591 148.963 42.0939L148.757 42.3226C148.58 42.1358 148.339 41.9052 148.034 41.6307C147.736 41.3486 147.435 41.0703 147.13 40.7959C146.802 40.5008 146.483 40.2199 146.171 39.953C145.874 39.6854 145.627 39.4769 145.43 39.3275L145.636 39.0988C145.901 39.31 146.116 39.4477 146.279 39.5117C146.449 39.5827 146.616 39.5667 146.777 39.4638C146.946 39.3678 147.155 39.1826 147.402 38.9083L149.511 36.565L149.742 38.0559L151.376 37.6435Z" fill="white"/>
<path d="M166.506 47.0584L166.257 47.2392C166.044 46.9632 165.854 46.7716 165.687 46.6645C165.535 46.5596 165.366 46.5365 165.181 46.5952C165.004 46.6479 164.762 46.7858 164.455 47.0088L158.183 51.5656C157.917 51.7584 157.729 51.9268 157.618 52.0708C157.522 52.217 157.498 52.3674 157.547 52.522C157.596 52.6766 157.704 52.87 157.873 53.1023L158.389 53.8116C158.624 54.1352 158.887 54.375 159.178 54.5312C159.475 54.6957 159.801 54.7879 160.158 54.8076C160.515 54.8274 160.897 54.7778 161.305 54.6589C161.721 54.534 162.155 54.3457 162.606 54.0941L162.814 54.3803C162.522 54.5543 162.156 54.8011 161.716 55.1205C161.534 55.2531 161.275 55.4471 160.941 55.7026C160.613 55.9663 160.279 56.2473 159.938 56.5457C159.647 56.1106 159.309 55.6275 158.923 55.0966C158.545 54.5596 158.206 54.0837 157.905 53.6689C157.76 53.4698 157.576 53.2168 157.353 52.9098C157.13 52.6028 156.882 52.2699 156.608 51.9109C156.349 51.5541 156.08 51.1921 155.8 50.8248C155.535 50.4598 155.278 50.1144 155.028 49.7885L155.277 49.6077C155.493 49.8694 155.674 50.0486 155.82 50.1452C155.972 50.25 156.138 50.269 156.317 50.2019C156.503 50.1432 156.745 50.0054 157.044 49.7884L163.216 45.3039C163.523 45.0809 163.729 44.8933 163.834 44.741C163.953 44.5911 163.986 44.4275 163.933 44.2503C163.895 44.0754 163.781 43.848 163.59 43.5682L163.839 43.3874C163.981 43.6008 164.166 43.8723 164.393 44.2019C164.619 44.5315 164.868 44.8829 165.14 45.2562C165.387 45.5964 165.635 45.9293 165.884 46.2552C166.134 46.581 166.341 46.8487 166.506 47.0584Z" fill="white"/>
<path d="M176.331 66.0523C175.93 66.1858 175.543 66.3246 175.169 66.4685C174.809 66.6176 174.535 66.7339 174.348 66.8173C174.17 66.8966 173.998 66.9784 173.834 67.0628C173.679 67.1431 173.547 67.213 173.439 67.2724L173.295 66.9492C173.908 66.5865 174.36 66.2394 174.65 65.9082C174.95 65.5727 175.11 65.2264 175.13 64.8692C175.165 64.5173 175.079 64.1118 174.875 63.6528L174.531 62.8799C174.406 62.5989 174.286 62.3938 174.173 62.2648C174.059 62.1358 173.915 62.0765 173.74 62.087C173.569 62.1069 173.329 62.1857 173.02 62.3234L165.826 65.5266C165.526 65.6601 165.307 65.7857 165.168 65.9034C165.044 66.0264 164.991 66.1732 165.011 66.344C165.031 66.5147 165.103 66.7406 165.228 67.0216L165.585 67.8226C165.798 68.3004 166.064 68.6589 166.384 68.8981C166.708 69.1468 167.115 69.2798 167.605 69.2972C168.105 69.3104 168.732 69.2053 169.486 68.982L169.63 69.3052C169.327 69.4064 168.946 69.5592 168.487 69.7636C168.29 69.8511 168.006 69.983 167.636 70.1592C167.269 70.3448 166.893 70.546 166.507 70.7628C166.313 70.2767 166.082 69.7339 165.816 69.1343C165.558 68.5306 165.325 67.9946 165.116 67.5262C165.02 67.3107 164.893 67.025 164.735 66.669C164.58 66.3224 164.407 65.9451 164.214 65.537C164.035 65.1342 163.846 64.7241 163.649 64.3067C163.466 63.8945 163.286 63.5031 163.11 63.1326L163.391 63.0075C163.547 63.3083 163.687 63.5211 163.81 63.646C163.937 63.7802 164.095 63.8332 164.285 63.805C164.478 63.7861 164.744 63.7016 165.081 63.5514L172.051 60.4483C172.397 60.294 172.638 60.1532 172.772 60.0261C172.92 59.9042 172.986 59.7511 172.972 59.5668C172.97 59.3877 172.906 59.1415 172.777 58.8282L173.059 58.7031C173.216 59.082 173.382 59.4796 173.556 59.896C173.744 60.3175 173.922 60.7318 174.092 61.1388C174.276 61.551 174.445 61.9304 174.599 62.277C174.758 62.633 174.885 62.9187 174.981 63.1342C175.173 63.5651 175.39 64.0523 175.632 64.5956C175.887 65.1441 176.12 65.6297 176.331 66.0523ZM170.518 65.9296C170.518 65.9296 170.471 65.9505 170.377 65.9922C170.283 66.0339 170.237 66.0547 170.237 66.0547L169.123 63.5535C169.123 63.5535 169.17 63.5326 169.263 63.4909C169.357 63.4492 169.404 63.4283 169.404 63.4283L170.518 65.9296ZM172.554 65.5113C172.003 65.7115 171.587 65.8742 171.306 65.9994C171.029 66.1339 170.774 66.2532 170.54 66.3575C170.305 66.4618 170.05 66.5812 169.773 66.7157C169.496 66.8502 169.099 67.055 168.582 67.3302L168.438 67.007C168.736 66.8184 169.002 66.61 169.237 66.3818C169.486 66.1588 169.647 65.9021 169.719 65.6115C169.806 65.3262 169.761 64.9868 169.586 64.5933L169.867 64.4682C169.996 64.7586 170.161 64.9657 170.362 65.0895C170.568 65.2226 170.789 65.3037 171.026 65.3327C171.273 65.3575 171.512 65.3521 171.743 65.3166C171.988 65.2862 172.21 65.2434 172.41 65.1881L172.554 65.5113Z" fill="white"/>
<path d="M175.468 79.9088C175.564 80.3601 175.54 80.7898 175.396 81.1978C175.262 81.6037 175.037 81.9503 174.721 82.2377C174.407 82.5351 174.024 82.7318 173.572 82.8278C173.131 82.9216 172.706 82.8965 172.298 82.7526C171.893 82.6187 171.541 82.3947 171.243 82.0805C170.956 81.7642 170.764 81.3803 170.668 80.9289C170.575 80.4876 170.594 80.059 170.725 79.6431C170.869 79.2351 171.099 78.8874 171.416 78.6C171.732 78.3126 172.111 78.122 172.552 78.0282C173.004 77.9322 173.432 77.9512 173.838 78.0851C174.244 78.219 174.591 78.4441 174.878 78.7604C175.178 79.0846 175.374 79.4674 175.468 79.9088Z" fill="white"/>
<path d="M181.407 97.4249C181.407 97.9992 181.346 98.4401 181.223 98.7478C181.099 99.0554 180.966 99.322 180.823 99.5476C180.751 99.6707 180.694 99.7681 180.653 99.8399C180.623 99.9219 180.607 99.9988 180.607 100.071C180.607 100.173 180.664 100.245 180.776 100.286C180.889 100.337 181.058 100.378 181.284 100.409V100.763C181.089 100.753 180.864 100.737 180.607 100.717C180.351 100.706 180.007 100.696 179.577 100.686C179.156 100.686 178.597 100.686 177.9 100.686V100.332C178.423 100.301 178.925 100.183 179.407 99.9783C179.889 99.7835 180.284 99.5015 180.592 99.1323C180.91 98.7734 181.069 98.3119 181.069 97.7479C181.069 97.2455 180.92 96.825 180.623 96.4866C180.325 96.1585 179.925 95.9944 179.423 95.9944C178.992 95.9944 178.628 96.1021 178.331 96.3174C178.044 96.5328 177.762 96.8353 177.485 97.225C177.218 97.6249 176.91 98.0966 176.562 98.6401C176.234 99.1426 175.906 99.5938 175.577 99.9937C175.259 100.394 174.906 100.706 174.516 100.932C174.126 101.168 173.65 101.286 173.086 101.286C172.419 101.286 171.865 101.122 171.424 100.794C170.983 100.465 170.655 100.024 170.44 99.4707C170.225 98.917 170.117 98.3119 170.117 97.6556C170.117 97.0506 170.178 96.5687 170.301 96.2098C170.424 95.8611 170.553 95.5586 170.686 95.3022C170.83 95.0766 170.901 94.9023 170.901 94.7792C170.901 94.6767 170.845 94.5998 170.732 94.5485C170.619 94.5075 170.45 94.4716 170.225 94.4408V94.0871C170.46 94.1076 170.737 94.1178 171.055 94.1178C171.373 94.1281 171.783 94.1332 172.286 94.1332C172.798 94.1435 173.444 94.1486 174.224 94.1486V94.5024C173.567 94.5434 172.952 94.6562 172.378 94.8408C171.814 95.0356 171.358 95.3279 171.009 95.7175C170.66 96.1175 170.486 96.6456 170.486 97.3019C170.486 97.6608 170.548 97.9838 170.671 98.2709C170.804 98.5683 171.004 98.8042 171.27 98.9785C171.547 99.1528 171.896 99.24 172.316 99.24C172.737 99.24 173.106 99.1426 173.424 98.9477C173.742 98.7529 174.039 98.4811 174.316 98.1325C174.593 97.7838 174.875 97.3736 175.162 96.9019C175.47 96.42 175.782 95.9688 176.1 95.5483C176.418 95.1279 176.777 94.7895 177.177 94.5331C177.587 94.287 178.079 94.164 178.654 94.164C179.29 94.164 179.807 94.3178 180.207 94.6254C180.618 94.9331 180.92 95.333 181.115 95.8252C181.31 96.3277 181.407 96.8609 181.407 97.4249Z" fill="white"/>
<path d="M178.757 116.358L168.546 118.009C168.153 118.083 167.868 118.19 167.691 118.33C167.523 118.483 167.417 118.634 167.375 118.782L167.074 118.718C167.15 118.462 167.227 118.148 167.306 117.777C167.393 117.418 167.476 117.048 167.557 116.667C167.651 116.225 167.734 115.813 167.805 115.43C167.886 115.048 167.942 114.735 167.973 114.49L168.274 114.554C168.185 115.07 168.201 115.414 168.322 115.587C168.452 115.761 168.795 115.803 169.349 115.711L177.059 114.582L177.332 114.923L171.6 111.188C171.139 110.891 170.752 110.688 170.439 110.58C170.127 110.472 169.871 110.444 169.671 110.495C169.471 110.547 169.309 110.67 169.184 110.864C169.069 111.059 168.974 111.312 168.897 111.62L168.597 111.556C168.685 111.24 168.761 110.931 168.825 110.63C168.899 110.331 168.968 110.031 169.032 109.73C169.079 109.51 169.118 109.298 169.151 109.095C169.192 108.905 169.218 108.732 169.23 108.577L169.531 108.641C169.534 108.873 169.618 109.116 169.784 109.371C169.948 109.637 170.269 109.925 170.748 110.237L178.923 115.576C178.887 115.694 178.855 115.823 178.825 115.964C178.795 116.104 178.772 116.235 178.757 116.358ZM172.114 116.314L171.813 116.25L172.766 111.767L173.035 111.981L172.114 116.314Z" fill="white"/>
<path d="M174.42 129.114C174.306 129.344 174.164 129.64 173.992 130.001C173.82 130.362 173.652 130.726 173.49 131.091C173.285 131.55 173.096 131.988 172.922 132.404C172.748 132.821 172.623 133.113 172.548 133.282C172.173 134.125 171.761 134.772 171.313 135.224C170.87 135.689 170.405 135.976 169.919 136.085C169.433 136.194 168.941 136.138 168.445 135.917C168.136 135.779 167.844 135.576 167.571 135.309C167.306 135.045 167.105 134.703 166.967 134.282C166.829 133.861 166.787 133.349 166.843 132.745C166.904 132.155 167.114 131.457 167.472 130.651L168.073 129.302L168.354 129.428L167.816 130.636C167.553 131.226 167.456 131.722 167.524 132.123C167.598 132.537 167.785 132.873 168.086 133.13C168.392 133.401 168.76 133.633 169.191 133.824C169.931 134.154 170.567 134.263 171.1 134.152C171.641 134.045 172.07 133.636 172.387 132.924C172.558 132.54 172.591 132.251 172.486 132.059C172.377 131.875 172.079 131.675 171.592 131.458L164.622 128.355C164.285 128.205 164.019 128.121 163.826 128.102C163.632 128.083 163.474 128.136 163.351 128.261C163.224 128.395 163.084 128.608 162.932 128.899L162.651 128.774C162.774 128.548 162.917 128.253 163.079 127.887C163.251 127.526 163.421 127.158 163.588 126.783C163.775 126.362 163.946 125.966 164.099 125.597C164.262 125.231 164.386 124.927 164.471 124.685L164.752 124.81C164.633 125.128 164.569 125.374 164.558 125.549C164.544 125.733 164.61 125.886 164.758 126.008C164.901 126.139 165.142 126.28 165.479 126.43L172.449 129.533C172.795 129.688 173.061 129.772 173.245 129.787C173.435 129.815 173.593 129.762 173.72 129.628C173.852 129.507 173.992 129.294 174.139 128.989L174.42 129.114ZM168.312 129.409C168.097 129.841 167.911 130.196 167.754 130.474C167.601 130.765 167.47 131.01 167.359 131.207C167.245 131.414 167.136 131.596 167.033 131.752C166.612 132.496 166.174 132.986 165.721 133.223C165.274 133.472 164.732 133.528 164.097 133.392L162.506 133.07C162.084 132.984 161.768 132.95 161.558 132.968C161.353 133 161.213 133.112 161.139 133.304C161.081 133.435 161.063 133.562 161.087 133.685C161.12 133.812 161.177 133.949 161.257 134.097L161.001 134.219C160.815 133.855 160.71 133.511 160.686 133.186C160.672 132.866 160.754 132.504 160.934 132.101C161.134 131.651 161.406 131.318 161.75 131.101C162.103 130.887 162.599 130.856 163.24 131.006L164.764 131.365C165.19 131.465 165.577 131.53 165.922 131.561C166.264 131.601 166.556 131.574 166.8 131.48C167.044 131.387 167.239 131.176 167.385 130.848L168.06 129.33L168.312 129.409Z" fill="white"/>
<path d="M162.978 148.752L152.978 146.107C152.589 146.015 152.285 145.997 152.067 146.053C151.85 146.124 151.693 146.219 151.594 146.337L151.345 146.157C151.519 145.953 151.717 145.698 151.94 145.391C152.165 145.098 152.392 144.794 152.621 144.479C152.886 144.114 153.129 143.771 153.35 143.449C153.579 143.134 153.758 142.871 153.886 142.66L154.135 142.841C153.844 143.276 153.719 143.597 153.759 143.803C153.807 144.016 154.103 144.193 154.647 144.334L162.149 146.439L162.26 146.862L158.542 141.118C158.242 140.659 157.971 140.317 157.73 140.091C157.488 139.865 157.266 139.735 157.062 139.701C156.859 139.667 156.66 139.713 156.467 139.839C156.283 139.971 156.093 140.163 155.898 140.414L155.649 140.233C155.858 139.98 156.054 139.729 156.234 139.48C156.423 139.237 156.608 138.991 156.789 138.742C156.922 138.56 157.044 138.382 157.157 138.21C157.271 138.053 157.365 137.906 157.439 137.769L157.688 137.95C157.597 138.163 157.575 138.419 157.623 138.72C157.664 139.029 157.841 139.424 158.151 139.903L163.448 148.105C163.367 148.198 163.285 148.303 163.2 148.419C163.116 148.536 163.042 148.646 162.978 148.752ZM156.927 146.01L156.678 145.829L159.373 142.121L159.531 142.426L156.927 146.01Z" fill="white"/>
<path d="M153.828 158.642C153.63 158.806 153.379 159.018 153.075 159.278C152.771 159.538 152.471 159.801 152.173 160.069C151.8 160.405 151.449 160.728 151.121 161.038C150.792 161.347 150.559 161.564 150.422 161.687C149.401 162.607 148.454 163.08 147.581 163.107C146.701 163.141 145.962 162.826 145.365 162.163C145.118 161.889 144.907 161.554 144.732 161.16C144.563 160.774 144.484 160.341 144.495 159.863C144.512 159.392 144.662 158.884 144.945 158.34C145.22 157.802 145.685 157.239 146.341 156.648L147.484 155.619L147.69 155.848L146.661 156.774C146.181 157.206 145.908 157.639 145.841 158.071C145.767 158.51 145.84 158.935 146.058 159.346C146.268 159.763 146.548 160.166 146.898 160.555C147.55 161.279 148.155 161.714 148.714 161.859C149.273 162.005 149.842 161.817 150.421 161.295C150.733 161.014 150.881 160.764 150.863 160.545C150.838 160.333 150.647 160.029 150.29 159.633L145.226 154.009C144.966 153.719 144.74 153.529 144.548 153.44C144.357 153.35 144.153 153.361 143.937 153.473C143.72 153.585 143.445 153.785 143.11 154.072L142.894 153.832C143.129 153.648 143.421 153.399 143.772 153.083C144.129 152.775 144.495 152.453 144.868 152.117C145.188 151.828 145.493 151.547 145.784 151.272C146.081 151.004 146.333 150.763 146.54 150.549L146.746 150.777C146.509 151.019 146.349 151.218 146.269 151.373C146.18 151.536 146.179 151.702 146.264 151.874C146.342 152.052 146.504 152.279 146.751 152.553L151.856 158.223C152.11 158.505 152.318 158.69 152.481 158.778C152.642 158.881 152.809 158.897 152.979 158.826C153.149 158.77 153.363 158.632 153.622 158.413L153.828 158.642Z" fill="white"/>
<path d="M134.404 167.486C134.005 167.717 133.589 167.827 133.156 167.816C132.729 167.814 132.329 167.707 131.958 167.495C131.578 167.288 131.273 166.985 131.042 166.586C130.817 166.195 130.709 165.783 130.72 165.351C130.722 164.923 130.827 164.52 131.033 164.14C131.245 163.769 131.551 163.468 131.951 163.237C132.342 163.011 132.755 162.897 133.191 162.894C133.624 162.905 134.026 163.016 134.397 163.228C134.768 163.44 135.066 163.741 135.292 164.132C135.523 164.532 135.637 164.945 135.635 165.373C135.633 165.8 135.526 166.199 135.314 166.57C135.098 166.955 134.795 167.261 134.404 167.486Z" fill="white"/>
<path d="M118.346 178.981C117.703 179.19 117.144 179.264 116.671 179.202C116.192 179.153 115.75 179.054 115.346 178.905C115.103 178.822 114.95 178.85 114.888 178.989C114.818 179.141 114.832 179.433 114.93 179.865L114.593 179.974C114.492 179.597 114.36 179.139 114.195 178.599C114.03 178.06 113.806 177.351 113.52 176.473L113.857 176.364C114.058 176.784 114.24 177.129 114.404 177.399C114.57 177.68 114.752 177.906 114.948 178.08C115.135 178.256 115.367 178.407 115.645 178.532C116.003 178.739 116.39 178.851 116.805 178.867C117.213 178.896 117.618 178.846 118.017 178.716C118.525 178.551 118.924 178.27 119.216 177.874C119.501 177.49 119.694 177.023 119.795 176.472C119.89 175.935 119.901 175.338 119.828 174.682C119.746 174.03 119.592 173.358 119.367 172.665C119.136 171.953 118.857 171.311 118.53 170.737C118.197 170.177 117.83 169.709 117.427 169.333C117.018 168.97 116.582 168.723 116.119 168.593C115.647 168.467 115.157 168.486 114.65 168.65C114.289 168.768 113.941 168.956 113.605 169.216C113.269 169.477 113.025 169.788 112.873 170.15C112.646 170.547 112.539 170.964 112.552 171.402C112.568 171.85 112.651 172.421 112.802 173.116L112.465 173.226C112.167 172.309 111.922 171.569 111.728 171.007C111.538 170.454 111.371 169.991 111.228 169.617L111.564 169.507C111.74 169.914 111.893 170.155 112.026 170.231C112.148 170.31 112.295 170.246 112.465 170.04C112.744 169.669 113.056 169.319 113.402 168.991C113.742 168.676 114.229 168.415 114.862 168.209C115.857 167.886 116.798 167.812 117.685 167.988C118.573 168.163 119.354 168.577 120.03 169.231C120.697 169.888 121.21 170.772 121.572 171.884C121.927 172.976 122.023 174.002 121.86 174.961C121.697 175.919 121.314 176.75 120.712 177.452C120.11 178.154 119.321 178.664 118.346 178.981Z" fill="white"/>
<path d="M100.459 182.079C99.419 182.188 98.4832 182.065 97.6518 181.709C96.8204 181.353 96.1472 180.784 95.632 180.003C95.1077 179.233 94.784 178.262 94.6607 177.089C94.5406 175.947 94.66 174.924 95.0186 174.02C95.3671 173.117 95.9139 172.385 96.659 171.822C97.3939 171.26 98.2713 170.925 99.2911 170.818C100.331 170.709 101.267 170.832 102.099 171.188C102.93 171.544 103.608 172.112 104.134 172.892C104.649 173.673 104.967 174.645 105.09 175.808C105.21 176.95 105.09 177.973 104.732 178.877C104.373 179.78 103.826 180.513 103.091 181.075C102.356 181.637 101.479 181.972 100.459 182.079ZM100.491 181.797C101.093 181.734 101.594 181.449 101.995 180.943C102.385 180.438 102.66 179.77 102.82 178.938C102.98 178.107 103.005 177.161 102.893 176.1C102.78 175.019 102.543 174.09 102.183 173.314C101.824 172.547 101.387 171.969 100.871 171.58C100.357 171.201 99.8198 171.041 99.2589 171.1C98.6572 171.163 98.1612 171.447 97.7709 171.952C97.3704 172.458 97.0901 173.127 96.93 173.959C96.771 174.8 96.7467 175.746 96.8571 176.797C96.9718 177.888 97.2086 178.817 97.5676 179.583C97.9266 180.35 98.3631 180.923 98.8773 181.302C99.3823 181.692 99.9203 181.857 100.491 181.797Z" fill="white"/>
<path d="M82.3189 181.39C81.2787 181.281 80.389 180.965 79.6498 180.444C78.9106 179.923 78.3703 179.227 78.0288 178.356C77.676 177.494 77.5612 176.477 77.6845 175.304C77.8046 174.162 78.134 173.186 78.6727 172.376C79.2013 171.566 79.8885 170.963 80.7344 170.567C81.57 170.17 82.4978 170.025 83.5176 170.132C84.5578 170.242 85.4476 170.557 86.1867 171.078C86.9259 171.599 87.4714 172.296 87.8231 173.168C88.1646 174.039 88.2742 175.056 88.152 176.218C88.032 177.361 87.7026 178.337 87.1638 179.146C86.625 179.956 85.9378 180.559 85.1022 180.955C84.2665 181.352 83.3388 181.497 82.3189 181.39ZM82.4091 181.121C83.0108 181.184 83.5601 181.01 84.0571 180.598C84.5438 180.185 84.9519 179.589 85.2814 178.809C85.6108 178.029 85.8313 177.109 85.9428 176.048C86.0564 174.967 86.0179 174.009 85.8272 173.175C85.6354 172.35 85.328 171.694 84.905 171.206C84.4809 170.729 83.9884 170.46 83.4275 170.401C82.8258 170.338 82.2815 170.513 81.7948 170.926C81.2978 171.338 80.8846 171.933 80.5552 172.713C80.2247 173.504 80.0042 174.424 79.8938 175.474C79.7791 176.565 79.8176 177.523 80.0094 178.348C80.2011 179.172 80.5091 179.823 80.9332 180.301C81.346 180.788 81.838 181.061 82.4091 181.121Z" fill="white"/>
<path d="M60.5208 175.354L60.6159 175.062C60.9567 175.108 61.323 175.092 61.7148 175.014C62.1066 174.937 62.5462 174.745 63.0336 174.44L66.9012 171.945L65.9007 172.784L64.1155 166.381C64.0323 166.106 63.93 165.874 63.8086 165.683C63.6872 165.493 63.5106 165.306 63.279 165.123L63.3741 164.831C63.6701 164.948 64.0131 165.071 64.4032 165.197C64.7902 165.334 65.1446 165.454 65.4664 165.559C65.6517 165.619 65.8873 165.69 66.1733 165.772C66.4464 165.861 66.7958 165.964 67.2215 166.081L67.1264 166.373C66.73 166.266 66.4785 166.244 66.372 166.306C66.2623 166.378 66.2425 166.555 66.3128 166.837L67.3553 170.895C67.429 171.2 67.5086 171.436 67.5942 171.604C67.67 171.768 67.765 171.891 67.8791 171.971C67.9901 172.061 68.1366 172.141 68.3187 172.211L68.2237 172.504C67.8077 172.39 67.4071 172.378 67.0219 172.469C66.6367 172.559 66.2214 172.743 65.776 173.018L64.3143 173.983C63.814 174.295 63.4757 174.589 63.2995 174.866C63.1232 175.143 63.0911 175.391 63.203 175.611C63.3149 175.831 63.5643 176.009 63.9513 176.145L63.8562 176.438C63.6448 176.358 63.4334 176.279 63.222 176.2C63.0075 176.13 62.7945 176.055 62.5831 175.976C62.3588 175.903 62.1247 175.827 61.8809 175.748C61.5981 175.656 61.3429 175.578 61.1155 175.515C60.888 175.452 60.6898 175.398 60.5208 175.354ZM65.4654 176.961L65.5605 176.668C65.8757 176.76 66.1273 176.799 66.3153 176.784C66.4904 176.776 66.6357 176.694 66.7512 176.538C66.8636 176.391 66.9784 176.137 67.0957 175.776L69.4533 168.52C69.5674 168.169 69.6237 167.896 69.6222 167.702C69.6207 167.507 69.5515 167.355 69.4144 167.246C69.2676 167.134 69.0414 167.017 68.7356 166.896L68.8307 166.603C69.0682 166.702 69.3771 166.813 69.7574 166.937C70.1346 167.07 70.5183 167.2 70.9084 167.327C71.3472 167.47 71.7584 167.598 72.142 167.712C72.5223 167.835 72.8376 167.927 73.0877 167.987L72.9927 168.279C72.6645 168.194 72.4129 168.156 72.2378 168.163C72.053 168.168 71.9077 168.25 71.8019 168.41C71.6863 168.566 71.5715 168.82 71.4575 169.171L69.0998 176.427C68.9826 176.788 68.9263 177.061 68.9309 177.246C68.9227 177.437 68.9919 177.589 69.1387 177.701C69.2726 177.82 69.4988 177.937 69.8175 178.051L69.7224 178.344C69.4818 178.255 69.1729 178.144 68.7957 178.011C68.4185 177.877 68.0105 177.739 67.5716 177.597C67.1815 177.47 66.7947 177.35 66.4112 177.236C66.0276 177.122 65.7124 177.03 65.4654 176.961Z" fill="white"/>
<path d="M53.0304 171.346C52.8135 171.209 52.5344 171.036 52.1932 170.827C51.852 170.619 51.5082 170.414 51.1618 170.214C50.7267 169.963 50.3112 169.729 49.9153 169.512C49.5194 169.296 49.2415 169.141 49.0817 169.049C48.0338 168.444 47.3651 167.797 47.0756 167.109C46.7772 166.416 46.8049 165.763 47.1587 165.15C47.3382 164.839 47.602 164.577 47.9502 164.364C48.2895 164.145 48.713 164.017 49.2207 163.978C49.7194 163.935 50.2934 164.017 50.9424 164.226L50.9578 164.2C50.2173 163.677 49.6924 163.161 49.383 162.651C49.0596 162.145 48.8977 161.666 48.8972 161.216C48.8915 160.775 48.9938 160.372 49.204 160.008C49.5168 159.466 49.928 159.082 50.4378 158.855C50.9336 158.632 51.5024 158.57 52.1443 158.668C52.7862 158.766 53.4757 159.028 54.2128 159.454C54.4082 159.567 54.7031 159.743 55.0976 159.982C55.487 160.231 55.9659 160.519 56.5342 160.847C56.8983 161.058 57.2561 161.258 57.6076 161.449C57.9539 161.649 58.2432 161.805 58.4755 161.915L58.3217 162.181C58.0184 162.03 57.7803 161.94 57.6074 161.911C57.4257 161.877 57.2665 161.927 57.1298 162.062C56.9842 162.191 56.8191 162.415 56.6346 162.735L52.8199 169.342C52.6302 169.671 52.5184 169.926 52.4845 170.107C52.4366 170.293 52.4728 170.456 52.593 170.596C52.6992 170.741 52.8962 170.902 53.1842 171.08L53.0304 171.346ZM49.4543 168.926C49.8184 169.137 50.1017 169.2 50.3044 169.115C50.4981 169.026 50.7283 168.75 50.9949 168.288L54.8096 161.681C54.989 161.37 55.0983 161.12 55.1373 160.929C55.1763 160.738 55.1446 160.578 55.0421 160.448C54.9397 160.318 54.7597 160.178 54.5021 160.029C53.7739 159.609 53.1346 159.506 52.5842 159.721C52.0197 159.94 51.5221 160.423 51.0915 161.168C50.6967 161.852 50.5692 162.483 50.7091 163.061C50.8401 163.634 51.3097 164.154 52.1178 164.621L53.33 165.321C53.33 165.321 53.3095 165.356 53.2685 165.427C53.2223 165.507 53.1993 165.547 53.1993 165.547L52.0537 164.886C51.6007 164.624 51.1936 164.519 50.8321 164.571C50.4655 164.632 50.143 164.801 49.8644 165.078C49.5808 165.364 49.3287 165.698 49.1083 166.08C48.7288 166.737 48.5597 167.297 48.6009 167.759C48.637 168.23 48.9214 168.619 49.4543 168.926Z" fill="white"/>
<path d="M34.1557 157.717C33.3784 157.017 32.8439 156.239 32.5522 155.383C32.2604 154.527 32.2324 153.646 32.4681 152.741C32.6894 151.836 33.1946 150.946 33.9836 150.069C34.7521 149.216 35.5922 148.62 36.5039 148.282C37.408 147.937 38.3185 147.853 39.2354 148.03C40.1447 148.2 40.9803 148.628 41.7424 149.314C42.5197 150.014 43.0542 150.792 43.346 151.648C43.6377 152.504 43.6695 153.388 43.4414 154.301C43.2057 155.206 42.6967 156.093 41.9145 156.962C41.146 157.815 40.3059 158.411 39.3942 158.749C38.4825 159.088 37.572 159.172 36.6627 159.002C35.7535 158.831 34.9178 158.403 34.1557 157.717ZM34.3867 157.552C34.8363 157.957 35.3832 158.139 36.0273 158.098C36.6637 158.05 37.3444 157.808 38.0694 157.37C38.7944 156.933 39.5136 156.318 40.2273 155.526C40.9546 154.718 41.4864 153.92 41.8227 153.133C42.1522 152.353 42.2891 151.642 42.2336 150.998C42.1713 150.363 41.9305 149.856 41.5114 149.479C41.0618 149.074 40.5188 148.895 39.8823 148.943C39.2382 148.984 38.5537 149.224 37.8287 149.661C37.0969 150.106 36.3776 150.721 35.6709 151.506C34.9367 152.321 34.4048 153.119 34.0754 153.898C33.7459 154.678 33.6124 155.386 33.6748 156.021C33.7226 156.658 33.96 157.168 34.3867 157.552Z" fill="white"/>
<path d="M22.5294 143.775C21.9146 142.929 21.5535 142.057 21.4462 141.159C21.3388 140.261 21.4945 139.394 21.9133 138.557C22.3178 137.718 22.9971 136.952 23.9512 136.259C24.8803 135.584 25.826 135.176 26.788 135.034C27.7441 134.885 28.6522 134.992 29.5122 135.356C30.3663 135.711 31.0946 136.304 31.6974 137.133C32.3122 137.98 32.6733 138.852 32.7807 139.75C32.888 140.648 32.7353 141.519 32.3225 142.364C31.9037 143.201 31.2214 143.963 30.2757 144.65C29.3465 145.325 28.4009 145.733 27.4388 145.874C26.4767 146.016 25.5686 145.908 24.7146 145.553C23.8606 145.197 23.1322 144.605 22.5294 143.775ZM22.7896 143.662C23.1452 144.152 23.6423 144.443 24.2808 144.537C24.9133 144.623 25.6296 144.527 26.4297 144.25C27.2297 143.973 28.0611 143.521 28.9239 142.894C29.8033 142.255 30.4893 141.586 30.982 140.885C31.4664 140.191 31.7483 139.524 31.8277 138.883C31.8989 138.248 31.7687 137.703 31.4372 137.246C31.0816 136.757 30.5875 136.469 29.955 136.384C29.3165 136.29 28.5972 136.382 27.7972 136.659C26.9888 136.942 26.1574 137.394 25.3029 138.015C24.4152 138.66 23.7292 139.329 23.2448 140.023C22.7605 140.717 22.4827 141.382 22.4115 142.017C22.326 142.649 22.4521 143.198 22.7896 143.662Z" fill="white"/>
<path d="M12.429 123.537L12.71 123.412C12.9039 123.696 13.1607 123.958 13.4805 124.197C13.8003 124.437 14.2367 124.635 14.7897 124.793L19.2322 125.997L17.9389 125.816L21.5024 120.205C21.6511 119.959 21.7556 119.727 21.8158 119.51C21.8761 119.292 21.8967 119.036 21.8778 118.741L22.1589 118.616C22.2694 118.915 22.4081 119.252 22.5749 119.626C22.7324 120.005 22.88 120.349 23.0176 120.658C23.0969 120.836 23.2016 121.059 23.332 121.327C23.4488 121.589 23.6062 121.917 23.8043 122.312L23.5232 122.437C23.3377 122.071 23.186 121.869 23.0684 121.831C22.9413 121.798 22.7966 121.902 22.6344 122.142L20.3158 125.633C20.139 125.891 20.0168 126.108 19.9493 126.284C19.8775 126.451 19.85 126.604 19.8668 126.742C19.8742 126.885 19.9128 127.047 19.9827 127.229L19.7016 127.354C19.5077 126.969 19.2483 126.664 18.9233 126.438C18.5983 126.212 18.1843 126.026 17.6813 125.88L15.9864 125.439C15.4199 125.276 14.9748 125.221 14.651 125.276C14.3272 125.33 14.1212 125.472 14.0328 125.703C13.9445 125.933 13.979 126.237 14.1365 126.616L13.8555 126.741C13.7731 126.531 13.6907 126.321 13.6083 126.11C13.5165 125.904 13.4294 125.696 13.3471 125.486C13.2511 125.27 13.151 125.046 13.0467 124.811C12.9258 124.54 12.8127 124.298 12.7074 124.087C12.6021 123.876 12.5093 123.693 12.429 123.537ZM14.5437 128.287L14.8247 128.162C14.9675 128.457 15.1072 128.67 15.2437 128.8C15.3666 128.925 15.5249 128.978 15.7186 128.959C15.9028 128.945 16.1683 128.86 16.5149 128.706L23.4847 125.603C23.8219 125.453 24.0624 125.312 24.206 125.181C24.3496 125.049 24.4161 124.896 24.4056 124.721C24.3909 124.537 24.3262 124.291 24.2114 123.983L24.4925 123.858C24.578 124.1 24.7021 124.404 24.8648 124.769C25.0181 125.139 25.1781 125.511 25.345 125.886C25.5327 126.307 25.7125 126.699 25.8846 127.06C26.0472 127.425 26.1901 127.721 26.3131 127.947L26.032 128.072C25.8757 127.771 25.736 127.558 25.6131 127.433C25.4859 127.299 25.3276 127.246 25.1382 127.274C24.9445 127.293 24.6791 127.378 24.3418 127.528L17.372 130.631C17.0254 130.785 16.785 130.926 16.6508 131.053C16.503 131.175 16.4365 131.328 16.4511 131.512C16.4523 131.691 16.517 131.938 16.6453 132.251L16.3643 132.376C16.2693 132.138 16.1452 131.834 15.992 131.464C15.8387 131.095 15.6682 130.699 15.4805 130.278C15.3136 129.903 15.1442 129.535 14.9722 129.174C14.8001 128.813 14.6573 128.517 14.5437 128.287Z" fill="white"/>
<path d="M13.8642 110.967C13.7682 110.516 13.7922 110.086 13.9361 109.678C14.07 109.272 14.2951 108.925 14.6114 108.638C14.9256 108.341 15.3084 108.144 15.7598 108.048C16.2011 107.954 16.6258 107.979 17.0338 108.123C17.4397 108.257 17.7913 108.481 18.0887 108.795C18.3761 109.112 18.5678 109.495 18.6637 109.947C18.7576 110.388 18.7386 110.817 18.6068 111.233C18.4629 111.641 18.2328 111.988 17.9165 112.276C17.6001 112.563 17.2213 112.754 16.78 112.848C16.3286 112.943 15.9 112.924 15.4941 112.791C15.0882 112.657 14.7416 112.432 14.4542 112.115C14.1547 111.791 13.958 111.408 13.8642 110.967Z" fill="white"/>
<defs>
<clipPath id="clip0_6_42">
<rect width="54" height="54" fill="white" transform="translate(69 55)"/>
</clipPath>
</defs>
</svg>
